<svg width="600" height="400" viewBox="0 0 600 400" fill="none" xmlns="http://www.w3.org/2000/svg">
<rect width="600" height="400" fill="white"/>
<path d="M520.276 172.286C507.985 172.286 495.97 168.641 485.751 161.813C475.532 154.985 467.567 145.279 462.863 133.924C458.16 122.569 456.929 110.074 459.327 98.0195C461.725 85.9649 467.643 74.8921 476.334 66.2013C485.025 57.5104 496.098 51.5919 508.152 49.1941C520.207 46.7963 532.702 48.0269 544.057 52.7304C555.412 57.4338 565.117 65.3988 571.946 75.6182C578.774 85.8376 582.419 97.8523 582.419 110.143C582.4 126.619 575.847 142.414 564.197 154.064C552.547 165.714 536.751 172.267 520.276 172.286V172.286ZM520.276 48.971C508.177 48.971 496.35 52.5587 486.29 59.2803C476.231 66.002 468.39 75.5558 463.76 86.7335C459.13 97.9112 457.919 110.211 460.279 122.077C462.64 133.943 468.466 144.843 477.021 153.398C485.576 161.953 496.476 167.779 508.342 170.14C520.208 172.5 532.508 171.288 543.685 166.659C554.863 162.029 564.417 154.188 571.138 144.128C577.86 134.069 581.448 122.242 581.448 110.143C581.429 93.9248 574.979 78.3761 563.511 66.9081C552.043 55.4401 536.494 48.9894 520.276 48.971V48.971Z" fill="#3F3D56"/>
<path d="M520.484 141.526C537.717 141.526 551.688 127.556 551.688 110.322C551.688 93.0887 537.717 79.1182 520.484 79.1182C503.25 79.1182 489.28 93.0887 489.28 110.322C489.28 127.556 503.25 141.526 520.484 141.526Z" fill="#F2F2F2"/>
<path d="M522.543 110.395H46.1899V349.705H522.543V110.395Z" fill="#3F3D56"/>
<path opacity="0.1" d="M358.655 179.579H180.022V302.07H358.655V179.579Z" fill="black"/>
<path d="M563.193 79.0444C570.142 79.0444 575.775 73.4111 575.775 66.4621C575.775 59.5132 570.142 53.8799 563.193 53.8799C556.244 53.8799 550.61 59.5132 550.61 66.4621C550.61 73.4111 556.244 79.0444 563.193 79.0444Z" fill="#0D6EFD"/>
<path d="M60.3672 125.139C63.4991 125.139 66.038 122.6 66.038 119.468C66.038 116.336 63.4991 113.797 60.3672 113.797C57.2352 113.797 54.6963 116.336 54.6963 119.468C54.6963 122.6 57.2352 125.139 60.3672 125.139Z" fill="#0D6EFD"/>
<path d="M77.9467 125.139C81.0787 125.139 83.6176 122.6 83.6176 119.468C83.6176 116.336 81.0787 113.797 77.9467 113.797C74.8148 113.797 72.2759 116.336 72.2759 119.468C72.2759 122.6 74.8148 125.139 77.9467 125.139Z" fill="#0D6EFD"/>
<path d="M95.5263 125.139C98.6583 125.139 101.197 122.6 101.197 119.468C101.197 116.336 98.6583 113.797 95.5263 113.797C92.3944 113.797 89.8555 116.336 89.8555 119.468C89.8555 122.6 92.3944 125.139 95.5263 125.139Z" fill="#0D6EFD"/>
<path d="M112.539 199.426H101.198V210.768H112.539V199.426Z" fill="#0D6EFD"/>
<path d="M457.895 298.099H446.553V309.44H457.895V298.099Z" fill="white"/>
<path d="M417.906 219.239L409.089 226.373L416.223 235.19L425.04 228.056L417.906 219.239Z" fill="#0D6EFD"/>
<path d="M377.935 373.522H21.8047V181.847H22.9388V372.388H377.935V373.522Z" fill="#3F3D56"/>
<path d="M384.741 380.326C383.283 380.326 381.858 379.894 380.646 379.084C379.433 378.274 378.488 377.122 377.93 375.775C377.372 374.428 377.226 372.946 377.511 371.516C377.795 370.086 378.497 368.772 379.528 367.741C380.559 366.71 381.873 366.008 383.303 365.724C384.733 365.439 386.215 365.585 387.562 366.143C388.91 366.701 390.061 367.646 390.871 368.858C391.681 370.071 392.113 371.496 392.113 372.954C392.111 374.909 391.334 376.783 389.952 378.165C388.57 379.547 386.696 380.324 384.741 380.326V380.326ZM384.741 366.716C383.508 366.716 382.301 367.082 381.276 367.768C380.25 368.453 379.45 369.427 378.978 370.567C378.506 371.707 378.382 372.961 378.623 374.171C378.864 375.381 379.458 376.493 380.33 377.365C381.203 378.237 382.314 378.832 383.524 379.072C384.734 379.313 385.989 379.189 387.128 378.717C388.268 378.245 389.243 377.446 389.928 376.42C390.613 375.394 390.979 374.188 390.979 372.954C390.977 371.3 390.32 369.715 389.15 368.545C387.981 367.376 386.395 366.718 384.741 366.716V366.716Z" fill="#3F3D56"/>
<path d="M22.3721 182.414C20.9141 182.414 19.4887 181.982 18.2764 181.172C17.0641 180.362 16.1192 179.21 15.5612 177.863C15.0032 176.516 14.8572 175.034 15.1417 173.604C15.4261 172.174 16.1282 170.86 17.1593 169.829C18.1903 168.798 19.5039 168.096 20.9339 167.812C22.364 167.527 23.8463 167.673 25.1933 168.231C26.5404 168.789 27.6918 169.734 28.5018 170.946C29.3119 172.159 29.7443 173.584 29.7443 175.042C29.7421 176.997 28.9647 178.87 27.5826 180.253C26.2006 181.635 24.3267 182.412 22.3721 182.414V182.414ZM22.3721 168.804C21.1384 168.804 19.9323 169.17 18.9065 169.855C17.8807 170.541 17.0812 171.515 16.609 172.655C16.1369 173.795 16.0133 175.049 16.254 176.259C16.4947 177.469 17.0888 178.581 17.9612 179.453C18.8336 180.325 19.9451 180.919 21.1552 181.16C22.3652 181.401 23.6195 181.277 24.7593 180.805C25.8991 180.333 26.8734 179.534 27.5588 178.508C28.2442 177.482 28.6101 176.276 28.6101 175.042C28.6082 173.388 27.9504 171.803 26.781 170.633C25.6115 169.464 24.026 168.806 22.3721 168.804V168.804Z" fill="#3F3D56"/>
<path d="M128.985 335.527L123.921 349.704H112.539V335.243C113.378 317.102 123.558 308.573 123.875 308.312C116.225 315.69 117.076 341.198 117.076 341.198C122.18 319.081 126.716 318.514 126.716 318.514C123.972 322.637 122.554 341.391 122.469 342.559C122.809 338.618 128.985 335.527 128.985 335.527Z" fill="#F2F2F2"/>
<path d="M481.146 337.455V349.704H472.395L468.103 337.676C468.103 337.676 472.997 340.126 473.269 343.251C473.201 342.287 472.078 327.452 469.9 324.185C469.9 324.185 473.501 324.633 477.55 342.173C477.55 342.173 478.219 321.945 472.157 316.093C472.412 316.303 480.482 323.062 481.146 337.455Z" fill="#F2F2F2"/>
<path d="M328.004 302.067H314.211L314.119 300.936L313.114 288.328V288.323L312.07 275.215L318.435 248.178L323.843 253.586V279.351C323.843 279.351 327.023 284.124 326.387 285.396C325.751 286.668 325.115 286.668 325.751 287.619C326.387 288.576 327.023 289.212 326.387 289.848C326.077 290.261 325.91 290.763 325.91 291.28C325.91 291.796 326.077 292.299 326.387 292.712C327.023 293.348 328.295 294.299 327.339 295.256C326.387 296.207 325.115 295.571 326.387 299.072C326.62 299.719 326.913 300.343 327.261 300.936C327.488 301.326 327.736 301.704 328.004 302.067V302.067Z" fill="#D0CDE1"/>
<path d="M285.511 214.935L283.602 234.02L303.006 236.883L304.437 225.909L305.869 214.935H285.511Z" fill="#FFB9B9"/>
<path opacity="0.1" d="M285.511 214.935L283.602 234.02L303.006 236.883L304.437 225.909L305.869 214.935H285.511Z" fill="black"/>
<path d="M296.167 221.138C304.6 221.138 311.436 214.302 311.436 205.869C311.436 197.437 304.6 190.601 296.167 190.601C287.734 190.601 280.898 197.437 280.898 205.869C280.898 214.302 287.734 221.138 296.167 221.138Z" fill="#FFB9B9"/>
<path d="M257.583 302.067C257.53 301.956 257.471 301.839 257.413 301.713C257.302 301.475 257.18 301.218 257.049 300.936C256.204 299.052 255.17 296.373 255.767 295.571C256.724 294.299 257.039 293.027 256.403 292.391C255.767 291.755 253.859 293.027 255.767 291.435C257.675 289.847 258.311 290.799 257.675 288.891C257.039 286.983 255.767 287.94 257.039 286.983C258.311 286.032 259.268 286.347 258.632 285.396C257.996 284.439 256.724 284.439 257.996 283.803C259.268 283.167 260.224 283.803 259.904 282.211C259.583 280.623 259.268 281.259 259.904 280.623C260.069 280.458 260.647 278.856 261.419 276.569C263.579 270.107 267.22 258.189 267.22 257.718C267.22 257.082 262.132 237.045 262.132 237.045L259.904 235.769C259.904 235.769 250.043 242.449 246.863 257.402C243.679 272.35 241.455 276.171 241.455 276.171C241.455 276.171 238.275 276.807 240.499 279.031C242.727 281.259 242.727 280.939 240.819 282.211C238.911 283.483 237.639 280.939 238.911 283.483C240.183 286.032 241.771 285.396 240.499 286.983C239.227 288.576 237.003 288.576 238.275 289.848C239.547 291.119 237.003 293.984 238.591 295.256C240.183 296.528 240.819 296.843 240.819 299.072C240.82 299.696 240.87 300.32 240.97 300.936C241.024 301.318 241.102 301.695 241.203 302.067C241.275 302.363 241.348 302.587 241.397 302.728L257.583 302.067Z" fill="#D0CDE1"/>
<path d="M257.583 302.066H258.88L258.947 301.614L257.413 301.711L251.835 302.066L241.397 302.726L257.583 302.066Z" fill="#3F3D56"/>
<path d="M264.356 288.575L261.497 278.715L261.419 276.569L259.904 235.768L278.673 229.093L281.853 226.544C281.853 226.544 282.489 219.227 283.446 218.591C283.79 218.363 284.344 218.63 285.077 219.252C286.364 220.344 288.208 222.524 290.442 224.956C293.942 228.772 301.259 228.136 303.482 226.864C303.768 226.698 304.065 226.55 304.371 226.422C305.968 225.762 306.662 226.228 306.662 226.228C308.254 227.5 304.438 231.637 304.438 231.637C304.438 231.637 305.71 234.496 313.978 237.361C322.251 240.225 323.844 253.586 323.844 253.586C323.844 253.586 313.978 280.302 314.299 282.21C314.571 283.846 313.444 287.352 313.114 288.323V288.327C313.061 288.483 313.027 288.575 313.027 288.575L313.75 300.936L313.818 302.067H265.701C265.558 301.673 265.378 301.295 265.162 300.936C265.109 300.848 265.051 300.756 264.992 300.664C262.133 296.207 264.356 288.575 264.356 288.575Z" fill="#D0CDE1"/>
<path d="M280.792 207.824C280.792 207.824 279.207 205.446 279.816 202.885C280.181 201.431 280.325 199.93 280.243 198.433C280.243 198.433 281.524 194.286 282.805 191.969C284.085 189.651 283.475 188.676 287.5 187.944C291.525 187.212 289.879 181.968 300.49 187.639C300.848 188.139 301.346 188.521 301.921 188.738C302.496 188.956 303.123 188.997 303.722 188.859C305.917 188.432 306.71 191.481 306.71 191.481C306.71 191.481 308.173 190.627 308.722 191.847C309.271 193.066 313.185 191.115 313.185 199.347C313.185 207.58 308.731 214.934 308.731 214.934C308.731 214.934 309.058 201.086 301.801 199.683C294.544 198.28 286.738 194.195 284.847 199.439C283.827 202.383 282.466 205.197 280.792 207.824Z" fill="#2F2E41"/>
<path d="M308.89 211.118C309.681 211.118 310.322 210.263 310.322 209.209C310.322 208.155 309.681 207.301 308.89 207.301C308.1 207.301 307.459 208.155 307.459 209.209C307.459 210.263 308.1 211.118 308.89 211.118Z" fill="#FFB9B9"/>
<path d="M180.021 170.503V302.066H388.71V170.503H180.021ZM387.578 300.935H181.157V171.639H387.578V300.935Z" fill="white"/>
</svg>
