<svg width="600" height="400" viewBox="0 0 600 400" fill="none" xmlns="http://www.w3.org/2000/svg">
<rect width="600" height="400" fill="white"/>
<path d="M122.14 328.533C110.485 337.221 107.182 352.507 107.182 352.507C107.182 352.507 122.775 353.708 134.431 345.019C146.086 336.331 149.389 321.045 149.389 321.045C149.389 321.045 133.795 319.844 122.14 328.533Z" fill="#F1F1F1"/>
<path d="M126.995 332.612C121.394 346.027 107.365 352.939 107.365 352.939C107.365 352.939 102.418 338.103 108.02 324.689C113.621 311.274 127.65 304.361 127.65 304.361C127.65 304.361 132.597 319.198 126.995 332.612Z" fill="#F1F1F1"/>
<path d="M462.321 293.833C461.082 285.491 460.755 277.039 461.345 268.627L462.321 254.704C456.944 265.402 458.159 279.482 462.321 293.833V293.833Z" fill="#CACACA"/>
<path d="M466.513 296.162C465.917 291.184 465.76 286.164 466.044 281.158L466.513 272.871C463.927 279.239 464.511 287.62 466.513 296.162Z" fill="#CACACA"/>
<path d="M485.148 306.411V311.069C485.146 311.439 484.998 311.794 484.736 312.055C484.475 312.317 484.12 312.465 483.75 312.467H481.421C481.36 312.467 481.299 312.478 481.243 312.502C481.186 312.525 481.135 312.559 481.091 312.603C481.048 312.646 481.014 312.697 480.99 312.754C480.967 312.811 480.955 312.871 480.955 312.933V351.13C480.953 351.5 480.806 351.854 480.544 352.116C480.282 352.377 479.928 352.525 479.558 352.527H451.143C450.772 352.527 450.417 352.379 450.155 352.117C449.893 351.855 449.746 351.5 449.746 351.13V312.933C449.745 312.809 449.696 312.691 449.609 312.604C449.521 312.516 449.403 312.467 449.28 312.467H446.485C446.114 312.466 445.759 312.319 445.497 312.057C445.235 311.795 445.088 311.44 445.087 311.069V306.411C445.087 306.228 445.123 306.046 445.193 305.876C445.263 305.706 445.366 305.552 445.496 305.422C445.626 305.293 445.78 305.19 445.95 305.12C446.119 305.049 446.301 305.013 446.485 305.014H483.75C484.121 305.015 484.475 305.162 484.737 305.424C484.999 305.686 485.147 306.041 485.148 306.411V306.411Z" fill="#F2F2F2"/>
<path d="M480.997 313.445H449.787V314.843H480.997V313.445Z" fill="#E6E6E6"/>
<path d="M480.955 334.008C470.512 338.33 459.954 338.377 449.28 334.008V324.163C459.556 320.711 470.679 320.711 480.955 324.163V334.008Z" fill="#E6E6E6"/>
<path d="M306.021 183.479C329.334 183.479 348.234 164.579 348.234 141.266C348.234 117.952 329.334 99.0527 306.021 99.0527C282.707 99.0527 263.808 117.952 263.808 141.266C263.808 164.579 282.707 183.479 306.021 183.479Z" fill="#FEB8B8"/>
<path d="M345.448 104.847C339.137 94.5983 329.258 87.0466 317.713 83.6453L312.531 87.4271V82.5166C309.758 82.0922 306.951 81.9287 304.148 82.0283L299.677 86.0737V82.3644C293.057 83.187 286.68 85.3723 280.947 88.7825C275.213 92.1927 270.249 96.7538 266.366 102.178C256.657 116.176 255.018 135.649 264.568 149.759C267.189 141.702 270.371 134.143 272.993 126.087C275.054 126.368 277.142 126.378 279.205 126.117L282.394 118.675L283.285 125.802C293.172 124.941 307.835 123.05 317.207 121.317L316.295 115.849L321.748 120.393C324.619 119.732 326.324 119.132 326.183 118.674C333.153 129.911 341.684 137.088 348.653 148.325C351.3 132.48 354.347 119.306 345.448 104.847Z" fill="#2F2E41"/>
<path d="M396.809 249.817C395.358 241.084 393.861 232.183 389.802 224.316C387.134 219.163 382.9 214.253 377.192 213.234C376.067 213.133 374.962 212.878 373.908 212.474C372.236 211.668 349.76 198.837 346.187 196.603C343.12 194.684 338.278 191.132 335.837 191.132C333.381 191.078 323.963 193.27 287.203 190.396C287.203 190.396 277.105 194.377 269.291 199.203C269.173 199.125 231.138 219.55 229.709 219.496C227.003 219.382 224.488 221.115 222.937 223.296C221.386 225.478 220.658 228.179 219.896 230.791C228.204 249.291 235.805 267.815 244.113 286.315C244.502 287.012 244.709 287.796 244.714 288.594C244.547 289.422 244.193 290.201 243.68 290.873C239.606 297.417 239.735 305.649 240.181 313.341C240.626 321.033 241.177 329.158 237.739 336.053C236.804 337.946 235.588 339.678 234.699 341.571C232.616 345.858 231.864 359.57 233.08 364.176L385.479 368.542C382.203 359.535 396.809 249.817 396.809 249.817Z" fill="#0D6EFD"/>
<path d="M206.723 287.135C206.419 289.335 206.388 291.564 206.632 293.771L208.816 325.14C209.021 328.097 209.223 331.046 209.501 333.995C210.025 339.719 210.808 345.397 211.779 351.067C211.801 351.872 212.142 352.635 212.726 353.189C213.31 353.744 214.09 354.044 214.895 354.023C224.511 356.058 234.445 355.976 244.258 355.422C259.232 354.586 297.541 353.005 299.882 349.965C302.222 346.924 300.858 342.007 297.806 339.548C294.755 337.09 244.2 331.096 244.2 331.096C244.694 327.181 246.184 323.495 247.598 319.778C250.137 313.186 252.508 306.378 252.554 299.317C252.599 292.255 249.939 284.831 244.154 280.785C239.396 277.464 233.27 276.848 227.471 276.985C223.252 277.106 215.963 276.095 212.11 277.745C209.06 279.088 207.293 284.15 206.723 287.135Z" fill="#FBBEBE"/>
<path d="M219.457 231.354C218.716 232.129 218.142 233.047 217.77 234.052C211.626 247.899 207.997 262.729 207.053 277.848C207.069 278.586 206.899 279.315 206.559 279.969C206.223 280.404 205.849 280.809 205.441 281.178C205.086 281.599 204.817 282.086 204.65 282.611C204.483 283.136 204.421 283.689 204.468 284.238C204.514 284.787 204.669 285.321 204.922 285.811C205.175 286.3 205.522 286.735 205.943 287.09C206.012 287.149 206.083 287.205 206.156 287.258C207.41 284.898 210.412 284.127 213.081 283.922C225.857 282.911 238.338 288.855 251.153 288.407C250.249 285.282 248.948 282.28 248.211 279.119C244.95 265.08 253.083 249.795 248.097 236.272C247.101 233.566 245.437 230.906 242.815 229.72C241.729 229.282 240.593 228.982 239.433 228.825C236.194 228.24 229.748 225.739 226.617 226.743C225.462 227.115 225.006 228.202 224.048 228.859C222.593 229.788 220.663 230.13 219.457 231.354Z" fill="#0D6EFD"/>
<path d="M396.9 277.745C393.047 276.095 385.758 277.106 381.539 276.985C375.74 276.848 369.614 277.464 364.856 280.785C359.071 284.831 356.411 292.255 356.456 299.317C356.502 306.378 358.873 313.186 361.412 319.778C362.826 323.495 364.316 327.181 364.81 331.096C364.81 331.096 314.255 337.089 311.204 339.548C308.152 342.007 306.788 346.924 309.128 349.965C311.469 353.005 384.499 356.058 394.115 354.023C394.92 354.044 395.7 353.744 396.284 353.189C396.868 352.635 397.209 351.872 397.231 351.067C398.202 345.397 398.985 339.719 399.509 333.995C399.787 331.046 399.989 328.097 400.194 325.14L402.378 293.771C402.621 291.564 402.591 289.335 402.287 287.135C401.717 284.15 399.95 279.088 396.9 277.745Z" fill="#FBBEBE"/>
<path d="M384.962 228.859C384.004 228.202 383.549 227.115 382.393 226.743C379.262 225.739 372.816 228.24 369.578 228.825C368.418 228.982 367.281 229.282 366.196 229.72C363.574 230.906 361.909 233.566 360.913 236.272C355.927 249.795 364.06 265.08 360.799 279.119C360.062 282.28 358.762 285.282 357.857 288.407C370.672 288.855 383.153 282.911 395.93 283.922C398.598 284.127 401.6 284.898 402.855 287.258C402.927 287.205 402.998 287.149 403.067 287.09C403.488 286.735 403.836 286.3 404.089 285.811C404.342 285.321 404.496 284.787 404.543 284.238C404.589 283.689 404.527 283.136 404.36 282.611C404.193 282.086 403.924 281.599 403.569 281.178C403.162 280.809 402.788 280.404 402.452 279.969C402.111 279.315 401.941 278.586 401.958 277.848C401.014 262.729 397.385 247.899 391.241 234.052C390.868 233.047 390.294 232.129 389.554 231.354C388.348 230.13 386.417 229.788 384.962 228.859Z" fill="#0D6EFD"/>
<path d="M293.519 355.522C299.811 355.522 304.912 350.421 304.912 344.129C304.912 337.836 299.811 332.735 293.519 332.735C287.226 332.735 282.125 337.836 282.125 344.129C282.125 350.421 287.226 355.522 293.519 355.522Z" fill="#FBBEBE"/>
<path d="M318.747 355.522C325.04 355.522 330.141 350.421 330.141 344.129C330.141 337.836 325.04 332.735 318.747 332.735C312.455 332.735 307.354 337.836 307.354 344.129C307.354 350.421 312.455 355.522 318.747 355.522Z" fill="#FBBEBE"/>
<path d="M389.075 369.801H232.548C230.72 369.799 228.968 369.072 227.676 367.78C226.384 366.487 225.657 364.735 225.655 362.908V267.947C225.657 266.12 226.384 264.368 227.676 263.076C228.968 261.784 230.72 261.057 232.548 261.055H389.075C390.903 261.057 392.655 261.784 393.947 263.076C395.239 264.368 395.966 266.12 395.968 267.947V362.908C395.966 364.735 395.239 366.487 393.947 367.78C392.655 369.072 390.903 369.799 389.075 369.801Z" fill="#3F3D56"/>
<path d="M310.432 319.99C312.951 319.99 314.993 317.948 314.993 315.43C314.993 312.911 312.951 310.869 310.432 310.869C307.913 310.869 305.872 312.911 305.872 315.43C305.872 317.948 307.913 319.99 310.432 319.99Z" fill="white"/>
<path d="M566.935 350.648H42.0752V366.777H73.1201V370.526H535.902V366.777H566.935V350.648Z" fill="#F1F1F1"/>
<path d="M267.204 156.998C260.421 156.998 254.922 151.053 254.922 143.719V137.08C254.922 129.746 260.421 123.801 267.204 123.801V156.998H267.204Z" fill="#0D6EFD"/>
<path d="M345.591 123.801C352.374 123.801 357.873 129.746 357.873 137.08V143.719C357.873 151.053 352.374 156.998 345.591 156.998V123.801Z" fill="#0D6EFD"/>
<path d="M352.027 138.123H350.079C350.079 111.403 329.974 89.6645 305.261 89.6645C280.548 89.6645 260.443 111.403 260.443 138.123H258.495C258.495 110.241 279.474 87.5576 305.261 87.5576C331.048 87.5576 352.027 110.241 352.027 138.123Z" fill="#0D6EFD"/>
</svg>
