<svg width="600" height="400" viewBox="0 0 600 400" fill="none" xmlns="http://www.w3.org/2000/svg">
<rect width="600" height="400" fill="white"/>
<path d="M521 355.839C521 357.656 519.339 359.419 516.228 361.094C500.272 369.681 446.165 376 381.866 376C379.336 376 376.824 375.99 374.329 375.969C300.991 375.402 242.732 366.606 242.732 355.839C242.732 344.704 305.024 335.678 381.866 335.678C402.909 335.678 422.858 336.356 440.737 337.565C445.23 337.871 449.587 338.209 453.808 338.58C455.563 338.731 457.293 338.89 458.997 339.059C467.031 339.834 474.475 340.729 481.21 341.726C484.48 342.209 487.577 342.714 490.502 343.242C498.118 344.62 504.508 346.144 509.444 347.779C516.875 350.251 521 352.976 521 355.839Z" fill="#F0F0F0"/>
<path d="M359.268 253.703C359.268 261.045 296.977 266.996 220.134 266.996C207.435 266.996 195.134 266.832 183.445 266.527C138.364 265.357 102.397 262.069 87.9124 257.851C83.4282 256.548 81 255.152 81 253.703C81 252.046 84.1814 250.455 89.9905 248.993C93.3802 248.138 97.665 247.327 102.734 246.565C102.774 246.56 102.818 246.556 102.863 246.547C114.472 244.815 130.18 243.352 148.679 242.298C169.563 241.097 194.009 240.41 220.134 240.41C296.977 240.41 359.268 246.361 359.268 253.703Z" fill="#F0F0F0"/>
<path d="M352.946 188.438L342.787 185.609C342.787 185.609 338.808 184.815 341.239 177.043C343.671 169.271 348.493 171.446 348.493 171.446L357.505 174.064L361.064 175.163L356.057 182.187L355.637 186.868L352.946 188.438Z" fill="#3F3D56"/>
<path d="M372.577 167.904L375.764 180.635L359.433 196.464L358.028 196.816L354.283 195.763L351.095 183.032L354.324 179.637L351.023 178.772L358.067 171.935L361.742 172.706L364.69 169.779L362.7 168.984L362.512 168.235L364.923 166.338L372.577 167.904Z" fill="#3F3D56"/>
<path d="M357.275 185.862L359.385 194.287L369.119 185.086L366.682 176.543L357.275 185.862Z" fill="#0D6EFD"/>
<path d="M372.577 167.904L373.024 169.689L356.784 185.487L355.38 185.839L351.751 184.857L351.551 184.852L351.095 183.032L354.324 179.637L351.023 178.772L358.067 171.935L361.742 172.706L364.69 169.779L362.7 168.984L362.512 168.235L364.923 166.338L372.577 167.904Z" stroke="#3F3D56" stroke-miterlimit="10"/>
<path d="M365.297 168.631C366.021 168.45 366.508 167.905 366.385 167.414C366.262 166.923 365.576 166.671 364.852 166.853C364.128 167.034 363.641 167.579 363.764 168.07C363.887 168.561 364.574 168.812 365.297 168.631Z" fill="#0D6EFD"/>
<path d="M354.98 182.258C355.704 182.077 356.191 181.532 356.068 181.041C355.945 180.549 355.259 180.298 354.535 180.479C353.811 180.661 353.324 181.206 353.447 181.697C353.57 182.188 354.256 182.439 354.98 182.258Z" fill="#0D6EFD"/>
<path d="M346.196 204.298L348.412 196.766C348.412 196.766 342.651 183.03 349.298 181.7C355.944 180.371 356.388 194.55 356.388 194.55L353.729 202.969L346.196 204.298Z" fill="#FFB6B6"/>
<path d="M387.33 189.652C397.051 189.652 404.931 181.771 404.931 172.05C404.931 162.33 397.051 154.449 387.33 154.449C377.609 154.449 369.729 162.33 369.729 172.05C369.729 181.771 377.609 189.652 387.33 189.652Z" fill="#FFB6B6"/>
<path d="M381.636 184.475C381.636 184.475 380.601 197.417 378.012 198.453C375.424 199.488 405.967 206.736 405.967 206.736L398.202 197.935C398.202 197.935 396.649 184.475 400.273 181.369L381.636 184.475Z" fill="#FFB6B6"/>
<path d="M356.831 200.31L349.742 199.424C349.742 199.424 341.323 203.855 341.323 209.615C341.323 215.375 336.449 224.681 336.449 224.681C336.449 224.681 332.904 237.087 340.88 237.974C348.855 238.86 355.945 224.681 355.945 224.681L356.831 200.31Z" fill="#F0F0F0"/>
<path d="M352.843 270.763C352.843 270.763 337.334 256.141 332.903 257.027C328.472 257.913 319.61 259.243 319.61 265.889C319.61 272.536 334.233 288.044 334.233 288.044C334.233 288.044 345.31 312.415 355.945 313.301C362.94 313.935 369.894 314.971 376.77 316.403C376.77 316.403 371.896 334.127 374.555 339.001C377.214 343.875 387.405 349.635 388.291 349.192C389.177 348.749 401.584 337.228 406.901 320.834C412.219 304.439 415.763 292.032 410.889 291.146C406.015 290.26 352.843 270.763 352.843 270.763Z" fill="#2F2E41"/>
<path d="M320.94 264.561C320.94 264.561 317.838 264.117 318.281 271.65C318.724 279.183 320.054 306.212 322.269 311.529C324.485 316.847 324.928 323.05 324.041 325.266C323.155 327.481 321.383 331.026 324.485 331.469C327.586 331.912 340.436 330.14 341.766 329.697C343.095 329.253 344.424 321.721 343.538 321.721C342.652 321.721 340.436 321.278 341.322 318.176C342.209 315.074 342.652 315.074 341.322 314.188C339.993 313.302 336.448 311.972 337.334 311.086C338.221 310.2 339.107 289.374 339.107 289.374L320.94 264.561Z" fill="#2F2E41"/>
<path d="M325.37 330.138C325.37 330.138 317.837 327.923 316.951 332.797C316.951 332.797 315.622 340.33 321.382 342.988C325.099 344.745 328.657 346.821 332.016 349.192C332.016 349.192 341.322 352.737 341.765 348.306C342.208 343.875 339.992 327.923 339.992 327.923L325.37 330.138Z" fill="#2F2E41"/>
<path d="M375.441 335.456L389.62 323.936C389.62 323.936 386.962 338.115 390.507 340.773L392.126 345.507L387.591 349.216C387.591 349.216 373.669 346.977 375.441 335.456Z" fill="#2F2E41"/>
<path d="M395.38 315.96C395.38 315.96 386.075 318.619 387.404 327.924C388.734 337.229 390.438 347.339 390.438 347.339C390.438 347.339 390.949 372.234 397.596 374.007C404.242 375.779 406.015 372.234 406.015 372.234C406.015 372.234 413.57 352.78 411.332 346.977C408.623 339.954 404.719 332.068 406.015 329.696C407.289 327.363 405.128 314.631 395.38 315.96Z" fill="#2F2E41"/>
<path d="M400.698 193.664C400.698 193.664 397.153 194.107 391.393 194.993C385.632 195.879 381.645 191.448 378.543 192.335C375.441 193.221 349.741 199.424 349.741 199.424L353.729 229.998C353.729 229.998 348.855 265.446 349.741 271.65C350.627 277.853 339.107 276.967 345.753 284.5C352.4 292.033 363.92 298.679 387.405 296.464C410.889 294.248 413.991 294.691 413.991 291.146C413.991 287.602 408.674 257.471 410.446 254.812C412.219 252.153 415.763 249.052 413.991 245.95C412.219 242.848 410.446 241.076 413.105 238.417C415.763 235.759 417.093 233.1 417.093 231.771C417.093 230.441 423.296 208.729 423.296 208.729C423.296 208.729 420.637 198.095 417.536 197.652C414.434 197.209 411.775 194.993 409.56 194.993C407.344 194.993 406.015 195.436 404.686 194.993L400.698 193.664Z" fill="#F0F0F0"/>
<path d="M362.034 168.887C364.076 168.619 366.182 167.395 367.313 166.646C368.599 167.889 376.518 175.057 390.127 177.137C390.127 177.137 390.157 176.867 390.235 176.411L394.899 177.207L403.525 176.368C403.482 176.514 403.455 176.594 403.455 176.594C403.455 176.594 404.689 176.262 405.117 173.474C405.199 172.94 405.298 172.409 405.414 171.88C406.108 168.715 407.791 157.309 398.241 149.686C391.288 144.136 383.274 145.887 378.207 148.005C376.148 148.857 374.283 150.116 372.722 151.707C371.162 153.298 369.939 155.187 369.126 157.262C368.712 158.299 368.435 159.387 368.304 160.496L368.105 161.059C366.567 161.274 363.478 159.982 361.819 160.593C359.55 161.429 358.434 164.853 358.206 165.877C357.978 166.901 359.044 169.281 362.034 168.887ZM391.414 172.106C392.643 168.945 394.961 165.492 399.208 165.664C403.613 165.842 404.385 169.34 404.23 172.332L393.271 172.73L391.414 172.106Z" fill="#2F2E41"/>
<path d="M392.442 146.756C392.51 146.357 391.71 145.887 390.654 145.707C389.599 145.527 388.688 145.705 388.62 146.104C388.552 146.503 389.352 146.973 390.408 147.153C391.463 147.333 392.374 147.156 392.442 146.756Z" fill="#2F2E41"/>
<path d="M245.391 70.26C251.753 70.26 256.911 65.1021 256.911 58.7394C256.911 52.3767 251.753 47.2188 245.391 47.2188C239.028 47.2188 233.87 52.3767 233.87 58.7394C233.87 65.1021 239.028 70.26 245.391 70.26Z" fill="#0D6EFD"/>
<path d="M226.351 131.958C226.312 131.803 222.455 116.216 221.796 99.799C221.408 90.1332 222.188 82.068 224.114 75.827C226.548 67.9407 230.827 62.9441 236.834 60.9766L237.11 61.8186C224.097 66.0815 222.081 84.806 222.681 99.7635C223.336 116.09 227.172 131.589 227.21 131.743L226.351 131.958Z" fill="#2F2E41"/>
<path d="M275.266 219.103C269.143 227.137 276.161 242.782 276.161 242.782C276.161 242.782 293.107 245.402 299.23 237.368C305.353 229.334 298.335 213.69 298.335 213.69C298.335 213.69 281.389 211.07 275.266 219.103Z" fill="#3F3D56"/>
<path d="M158.796 232.252C163.865 238.163 176.79 235.392 176.79 235.392C176.79 235.392 181.496 223.04 176.426 217.13C171.356 211.219 158.431 213.989 158.431 213.989C158.431 213.989 153.726 226.342 158.796 232.252Z" fill="#3F3D56"/>
<path d="M297.465 253.65C247.921 226.709 208.876 228.139 184.848 234.083C158.837 240.518 144.362 253.459 144.218 253.589L143.623 252.933C143.768 252.801 158.41 239.711 184.635 233.223C200.028 229.415 216.348 228.588 233.145 230.763C254.125 233.481 275.908 240.919 297.889 252.871L297.465 253.65Z" fill="#2F2E41"/>
<path d="M221.242 174.389H220.355V230.023H221.242V174.389Z" fill="#2F2E41"/>
<path d="M221.021 222.243C238.64 222.243 252.924 207.96 252.924 190.34C252.924 172.72 238.64 158.437 221.021 158.437C203.401 158.437 189.117 172.72 189.117 190.34C189.117 207.96 203.401 222.243 221.021 222.243Z" fill="#3F3D56"/>
<path d="M221.02 160.653C234.235 160.653 244.948 149.94 244.948 136.725C244.948 123.511 234.235 112.798 221.02 112.798C207.805 112.798 197.093 123.511 197.093 136.725C197.093 149.94 207.805 160.653 221.02 160.653Z" fill="#3F3D56"/>
<path d="M221.02 115.456C231.299 115.456 239.631 107.124 239.631 96.8456C239.631 86.5675 231.299 78.2354 221.02 78.2354C210.742 78.2354 202.41 86.5675 202.41 96.8456C202.41 107.124 210.742 115.456 221.02 115.456Z" fill="#3F3D56"/>
</svg>
