<svg width="600" height="400" viewBox="0 0 600 400" fill="none" xmlns="http://www.w3.org/2000/svg">
<rect width="600" height="400" fill="white"/>
<path opacity="0.1" d="M287.32 384.518C432.979 384.518 551.059 377.752 551.059 369.406C551.059 361.059 432.979 354.293 287.32 354.293C141.661 354.293 23.5815 361.059 23.5815 369.406C23.5815 377.752 141.661 384.518 287.32 384.518Z" fill="#0D6EFD"/>
<g opacity="0.2">
<path opacity="0.2" d="M504.99 370.083C504.749 370.541 504.467 370.977 504.147 371.385C501.339 369.405 498.484 367.467 495.582 365.569C495.64 365.447 495.703 365.32 495.772 365.198C496.445 363.897 497.455 362.799 498.697 362.02C500.301 361.045 502.109 360.811 503.572 361.601C505.034 362.39 505.892 364.009 505.98 365.881C506.031 367.345 505.689 368.796 504.99 370.083V370.083Z" fill="#3F3D56"/>
<path opacity="0.2" d="M508.915 362.741C510.681 359.408 510.048 355.613 507.502 354.264C504.957 352.916 501.462 354.525 499.696 357.858C497.93 361.191 498.563 364.987 501.109 366.335C503.654 367.684 507.149 366.075 508.915 362.741Z" fill="#3F3D56"/>
<path opacity="0.2" d="M512.82 355.363C514.586 352.029 513.954 348.234 511.408 346.885C508.862 345.537 505.367 347.146 503.601 350.479C501.836 353.812 502.468 357.608 505.014 358.956C507.56 360.305 511.055 358.696 512.82 355.363Z" fill="#3F3D56"/>
<path opacity="0.2" d="M516.732 347.983C518.498 344.649 517.866 340.854 515.32 339.505C512.774 338.157 509.279 339.766 507.513 343.099C505.748 346.433 506.38 350.228 508.926 351.576C511.472 352.925 514.967 351.316 516.732 347.983Z" fill="#3F3D56"/>
<path opacity="0.2" d="M520.64 340.601C522.405 337.267 521.773 333.472 519.227 332.124C516.681 330.775 513.186 332.384 511.421 335.717C509.655 339.051 510.287 342.846 512.833 344.195C515.379 345.543 518.874 343.934 520.64 340.601Z" fill="#3F3D56"/>
<path opacity="0.2" d="M525.49 278.481C525.286 277.353 525.159 276.213 525.11 275.068L538.272 279.495L525.11 272.67C525.301 269.259 526.189 265.923 527.717 262.867C529.245 259.811 531.382 257.1 533.997 254.9L546.726 273.357L536.825 252.848C539.734 251.031 542.986 249.832 546.379 249.326C549.771 248.819 553.232 249.017 556.545 249.905C559.858 250.794 562.953 252.355 565.637 254.491C568.32 256.627 570.536 259.293 572.145 262.322C573.755 265.351 574.723 268.679 574.991 272.099C575.259 275.519 574.82 278.957 573.702 282.2C572.584 285.443 570.81 288.421 568.492 290.949C566.173 293.477 563.359 295.5 560.225 296.894C560.547 298.662 560.678 300.46 560.615 302.256L540.554 302.1L560.307 305.352C559.64 309.456 557.961 313.33 555.421 316.622C552.881 319.914 549.561 322.522 545.76 324.209C546.599 328.825 546.121 333.584 544.382 337.942C542.643 342.299 539.713 346.08 535.926 348.85C532.14 351.621 527.65 353.27 522.971 353.609C518.291 353.949 513.611 352.964 509.464 350.768C505.318 348.573 501.873 345.254 499.524 341.193C497.175 337.132 496.016 332.491 496.18 327.802C496.344 323.113 497.824 318.565 500.451 314.678C503.078 310.79 506.746 307.721 511.036 305.82C510.04 300.307 510.924 294.619 513.547 289.669C516.17 284.718 520.379 280.792 525.5 278.52L525.49 278.481Z" fill="#0D6EFD"/>
<path opacity="0.1" d="M557.709 313.034C555.095 317.994 550.88 321.925 545.751 324.188C546.589 328.804 546.111 333.563 544.372 337.921C542.633 342.279 539.703 346.059 535.917 348.83C532.13 351.6 527.641 353.25 522.961 353.589C518.282 353.928 513.601 352.943 509.455 350.748C505.308 348.552 501.864 345.234 499.514 341.173C497.165 337.111 496.006 332.471 496.17 327.782C496.334 323.093 497.814 318.545 500.441 314.657C503.068 310.77 506.736 307.7 511.026 305.8C510.056 300.471 559.025 310.558 557.709 313.034Z" fill="black"/>
</g>
<g opacity="0.2">
<path opacity="0.2" d="M489.327 222.63C489.023 223.412 488.657 224.169 488.23 224.892C483.319 222.272 478.345 219.727 473.308 217.257C473.376 217.048 473.454 216.828 473.537 216.619C474.354 214.397 475.751 212.434 477.583 210.934C479.957 209.033 482.819 208.317 485.383 209.287C487.947 210.257 489.585 212.699 490.097 215.678C490.467 218.022 490.201 220.423 489.327 222.63V222.63Z" fill="#3F3D56"/>
<path opacity="0.2" d="M494.145 210.01C496.318 204.301 494.545 198.327 490.184 196.667C485.823 195.007 480.527 198.29 478.353 203.999C476.18 209.709 477.953 215.683 482.314 217.343C486.674 219.002 491.971 215.72 494.145 210.01Z" fill="#3F3D56"/>
<path opacity="0.2" d="M498.958 197.38C501.131 191.67 499.358 185.696 494.998 184.036C490.637 182.376 485.34 185.659 483.167 191.368C480.993 197.078 482.766 203.052 487.127 204.712C491.488 206.372 496.785 203.089 498.958 197.38Z" fill="#3F3D56"/>
<path opacity="0.2" d="M503.764 184.74C505.937 179.03 504.164 173.056 499.803 171.397C495.443 169.737 490.146 173.019 487.972 178.729C485.799 184.438 487.572 190.412 491.933 192.072C496.293 193.732 501.59 190.449 503.764 184.74Z" fill="#3F3D56"/>
<path opacity="0.2" d="M508.577 172.113C510.75 166.404 508.977 160.429 504.616 158.77C500.256 157.11 494.959 160.392 492.785 166.102C490.612 171.811 492.385 177.785 496.746 179.445C501.106 181.105 506.403 177.822 508.577 172.113Z" fill="#3F3D56"/>
<path opacity="0.2" d="M504.01 71.3815C503.455 69.5967 503.023 67.7756 502.719 65.9313L524.763 70.4212L502.26 62.0459C501.891 56.5462 502.648 51.0291 504.484 45.832C506.321 40.635 509.199 35.8673 512.942 31.8208L537.102 58.8576L517.115 27.8866C521.428 24.4029 526.411 21.8428 531.756 20.3653C537.1 18.8879 542.691 18.5245 548.181 19.2978C553.671 20.0711 558.944 21.9645 563.672 24.8606C568.401 27.7567 572.483 31.5937 575.666 36.1333C578.85 40.673 581.066 45.8185 582.178 51.2504C583.29 56.6824 583.274 62.2849 582.13 67.7103C580.987 73.1358 578.74 78.2682 575.531 82.7893C572.321 87.3103 568.216 91.1234 563.471 93.9919C564.337 96.7688 564.903 99.6305 565.158 102.528L532.9 106.272L565.285 107.564C565.031 114.292 563.104 120.85 559.678 126.646C556.252 132.442 551.435 137.292 545.663 140.758C547.923 148.005 548.099 155.742 546.171 163.085C544.243 170.427 540.288 177.079 534.758 182.28C529.228 187.481 522.347 191.022 514.9 192.497C507.453 193.973 499.741 193.324 492.646 190.624C485.551 187.924 479.358 183.283 474.776 177.231C470.193 171.178 467.406 163.959 466.732 156.397C466.059 148.836 467.526 141.237 470.966 134.47C474.406 127.702 479.681 122.04 486.187 118.128C483.48 109.466 483.764 100.145 486.993 91.6629C490.222 83.1812 496.209 76.0312 503.991 71.362L504.01 71.3815Z" fill="#0D6EFD"/>
<path opacity="0.1" d="M562.656 120.472C559.439 128.955 553.451 136.103 545.662 140.757C547.923 148.004 548.099 155.741 546.17 163.083C544.242 170.426 540.287 177.078 534.757 182.279C529.227 187.48 522.346 191.021 514.899 192.496C507.453 193.972 499.741 193.322 492.646 190.623C485.55 187.923 479.358 183.282 474.775 177.229C470.193 171.177 467.406 163.957 466.732 156.396C466.058 148.834 467.525 141.236 470.966 134.468C474.406 127.701 479.681 122.038 486.187 118.127C483.589 109.781 564.275 116.23 562.656 120.472Z" fill="black"/>
</g>
<g opacity="0.2">
<path opacity="0.2" d="M100.909 264.657C101.156 265.625 101.482 266.571 101.884 267.485C108.059 265.119 114.304 262.844 120.619 260.66C120.565 260.401 120.512 260.133 120.444 259.87C119.808 257.125 118.449 254.601 116.509 252.557C113.984 249.964 110.713 248.696 107.569 249.467C104.424 250.237 102.109 252.879 101.06 256.292C100.261 259.016 100.209 261.906 100.909 264.657V264.657Z" fill="#3F3D56"/>
<path opacity="0.2" d="M110.002 259.419C115.392 258.103 118.366 251.315 116.643 244.259C114.92 237.202 109.153 232.548 103.763 233.864C98.372 235.18 95.3986 241.968 97.1215 249.025C98.8444 256.081 104.611 260.735 110.002 259.419Z" fill="#3F3D56"/>
<path opacity="0.2" d="M106.188 243.809C111.579 242.493 114.552 235.705 112.829 228.648C111.106 221.591 105.339 216.938 99.9487 218.254C94.558 219.57 91.5847 226.357 93.3075 233.414C95.0304 240.471 100.797 245.125 106.188 243.809Z" fill="#3F3D56"/>
<path opacity="0.2" d="M102.379 228.193C107.769 226.877 110.743 220.09 109.02 213.033C107.297 205.976 101.53 201.322 96.1396 202.638C90.7489 203.955 87.7756 210.742 89.4985 217.799C91.2213 224.856 96.988 229.51 102.379 228.193Z" fill="#3F3D56"/>
<path opacity="0.2" d="M98.5633 212.573C103.954 211.257 106.927 204.47 105.204 197.413C103.482 190.356 97.7149 185.702 92.3242 187.018C86.9335 188.334 83.9601 195.122 85.683 202.179C87.4059 209.236 93.1726 213.889 98.5633 212.573Z" fill="#3F3D56"/>
<path opacity="0.2" d="M105.882 84.0224C106.803 81.9992 107.582 79.9141 108.212 77.7823L81.541 79.8201L109.329 73.2583C110.579 66.8203 110.501 60.1948 109.1 53.7878C107.699 47.3809 105.005 41.3275 101.182 35.9985L68.6758 64.3907L96.8388 30.792C92.2654 26.0295 86.7608 22.259 80.6677 19.7151C74.5745 17.1712 68.0231 15.9084 61.4209 16.0052C54.8188 16.1019 48.3072 17.5562 42.2912 20.2776C36.2752 22.9989 30.8835 26.9291 26.4516 31.8236C22.0198 36.7181 18.6425 42.4723 16.5298 48.728C14.4172 54.9838 13.6145 61.6074 14.1716 68.1867C14.7287 74.766 16.6337 81.1603 19.7681 86.9718C22.9025 92.7833 27.1993 97.8877 32.391 101.967C30.959 105.118 29.8689 108.413 29.1394 111.795L66.6527 120.965L28.2473 117.714C27.5551 125.688 28.8609 133.709 32.0468 141.052C35.2327 148.395 40.1982 154.828 46.4944 159.77C42.7551 167.99 41.4039 177.096 42.5955 186.047C43.787 194.998 47.4732 203.434 53.2326 210.389C58.992 217.344 66.5922 222.538 75.1643 225.378C83.7364 228.217 92.9346 228.588 101.707 226.446C110.48 224.305 118.473 219.738 124.773 213.268C131.072 206.799 135.425 198.687 137.332 189.86C139.239 181.034 138.624 171.849 135.557 163.355C132.491 154.862 127.096 147.403 119.99 141.83C124.458 132.005 125.493 120.963 122.929 110.479C120.365 99.9945 114.351 90.6766 105.853 84.0224H105.882Z" fill="#0D6EFD"/>
<path opacity="0.1" d="M29.432 133.304C31.9754 143.797 37.9878 153.123 46.4945 159.771C42.7551 167.99 41.404 177.096 42.5955 186.048C43.7871 194.999 47.4733 203.434 53.2327 210.389C58.9921 217.344 66.5923 222.539 75.1644 225.378C83.7365 228.218 92.9347 228.588 101.707 226.447C110.48 224.305 118.473 219.739 124.773 213.269C131.073 206.799 135.425 198.687 137.332 189.861C139.239 181.034 138.624 171.849 135.558 163.356C132.491 154.862 127.096 147.403 119.99 141.831C124.319 132.349 28.1596 128.083 29.432 133.304Z" fill="black"/>
</g>
<path d="M528.898 71.3857H56.6349C56.0814 71.3864 55.5334 71.4961 55.0223 71.7087C54.5112 71.9213 54.047 72.2325 53.6562 72.6246C53.2655 73.0167 52.9559 73.4819 52.7451 73.9938C52.5343 74.5056 52.4265 75.054 52.4277 75.6075V364.638C52.4258 365.754 52.6437 366.859 53.069 367.891C53.4942 368.922 54.1185 369.86 54.9062 370.65C55.6938 371.441 56.6295 372.068 57.6597 372.497C58.6899 372.926 59.7944 373.148 60.9103 373.149H524.622C525.738 373.148 526.843 372.926 527.873 372.497C528.903 372.068 529.839 371.441 530.626 370.65C531.414 369.86 532.038 368.922 532.463 367.891C532.889 366.859 533.107 365.754 533.105 364.638V75.6075C533.106 74.49 532.664 73.4176 531.875 72.626C531.086 71.8344 530.015 71.3883 528.898 71.3857V71.3857Z" fill="url(#paint0_linear)"/>
<path d="M531.193 89.332V362.938C531.192 365.168 530.305 367.306 528.728 368.883C527.152 370.459 525.013 371.346 522.784 371.347H62.8303C60.5987 371.347 58.4585 370.461 56.8805 368.883C55.3025 367.305 54.416 365.164 54.416 362.933V89.332H531.193Z" fill="white"/>
<path d="M531.193 77.173V89.3313H54.416V77.173C54.416 76.0663 54.8557 75.0048 55.6383 74.2223C56.4209 73.4397 57.4823 73 58.589 73H527.02C528.127 73 529.188 73.4397 529.971 74.2223C530.753 75.0048 531.193 76.0663 531.193 77.173V77.173Z" fill="#EDEDF4"/>
<path opacity="0.8" d="M61.972 82.9938C63.0489 82.9938 63.922 82.1207 63.922 81.0438C63.922 79.9668 63.0489 79.0938 61.972 79.0938C60.895 79.0938 60.022 79.9668 60.022 81.0438C60.022 82.1207 60.895 82.9938 61.972 82.9938Z" fill="#FA5959"/>
<path opacity="0.8" d="M67.3348 82.9938C68.4117 82.9938 69.2848 82.1207 69.2848 81.0438C69.2848 79.9668 68.4117 79.0938 67.3348 79.0938C66.2578 79.0938 65.3848 79.9668 65.3848 81.0438C65.3848 82.1207 66.2578 82.9938 67.3348 82.9938Z" fill="#FED253"/>
<path opacity="0.8" d="M72.6976 82.9938C73.7745 82.9938 74.6476 82.1207 74.6476 81.0438C74.6476 79.9668 73.7745 79.0938 72.6976 79.0938C71.6206 79.0938 70.7476 79.9668 70.7476 81.0438C70.7476 82.1207 71.6206 82.9938 72.6976 82.9938Z" fill="#8CCF4D"/>
<path d="M320.553 66.0281V64.0781H317.628V66.0281H320.553Z" fill="url(#paint1_linear)"/>
<path d="M209.89 113.311H164.065V118.186H209.89V113.311Z" fill="#EDEDF4"/>
<path d="M421.466 127.45H164.065V132.325H421.466V127.45Z" fill="#EDEDF4"/>
<path d="M421.466 141.586H164.065V146.461H421.466V141.586Z" fill="#EDEDF4"/>
<path d="M421.466 155.724H164.065V160.599H421.466V155.724Z" fill="#EDEDF4"/>
<path d="M421.466 169.862H164.065V174.737H421.466V169.862Z" fill="#EDEDF4"/>
<path d="M372.145 196.829H213.22V319.68H372.145V196.829Z" fill="#EDEDF4"/>
<path d="M320.568 234.889C320.363 234.889 320.159 234.919 319.949 234.923C320.018 234.64 320.041 234.347 320.017 234.056C319.957 232.826 319.624 231.625 319.042 230.541C318.684 229.902 318.28 229.289 317.833 228.708C316.507 226.875 315.279 225.003 313.821 223.272C313.189 222.6 312.667 221.831 312.276 220.996C312.129 220.544 311.953 220.103 311.749 219.674C311.467 219.236 311.07 218.884 310.602 218.656C310.133 218.428 309.611 218.334 309.092 218.383C308.049 218.505 307.09 219.013 306.401 219.806C305.992 220.245 305.656 220.922 305.997 221.42C306.338 221.917 307.079 221.98 307.123 222.526C307.123 222.819 307.123 223.297 306.826 223.389C306.298 223.529 305.794 223.749 305.334 224.042C305.106 224.193 304.916 224.395 304.78 224.632C304.644 224.869 304.565 225.135 304.549 225.407C305.392 225.534 306.099 224.827 306.865 224.432C307.836 224.018 308.927 223.978 309.926 224.32C310.31 224.423 310.669 224.603 310.979 224.852C311.253 225.12 311.483 225.429 311.662 225.768C312.601 227.126 313.181 228.699 313.348 230.341L313.777 233.081C313.143 233.131 312.511 233.216 311.886 233.334C310.202 233.582 308.485 233.466 306.85 232.993C305.144 232.505 303.437 231.618 301.677 232.018C300.854 232.198 300.103 232.657 299.269 232.788C298.618 232.851 297.961 232.817 297.319 232.686L295.979 232.471C295.935 232.359 295.901 232.242 295.866 232.125C295.589 231.147 295.461 230.133 295.486 229.117C296.36 229.07 297.21 228.81 297.96 228.359C298.711 227.909 299.339 227.281 299.791 226.531C300.243 225.782 300.505 224.933 300.553 224.059C300.602 223.185 300.435 222.312 300.069 221.517C300.792 221.112 301.39 220.517 301.799 219.796L301.458 219.733L301.78 219.245C301.704 219.199 301.64 219.136 301.593 219.061C301.546 218.986 301.516 218.901 301.507 218.813C301.498 218.724 301.51 218.635 301.541 218.552C301.572 218.469 301.622 218.394 301.687 218.334C301.403 218.186 301.086 218.116 300.766 218.129C300.868 217.939 300.702 217.705 300.503 217.642C300.294 217.599 300.081 217.586 299.869 217.603C299.558 217.579 299.252 217.508 298.962 217.393C296.88 216.676 294.623 216.047 292.503 216.647C291.568 216.939 290.694 217.398 289.924 218.002C289.173 218.424 288.612 219.117 288.356 219.939C288.101 220.762 288.17 221.651 288.549 222.424C288.871 223.223 289.101 224.055 289.236 224.905C289.266 225.699 289.176 226.493 288.968 227.26C289.432 227.401 289.907 227.507 290.387 227.577C290.116 228.624 289.637 229.605 288.978 230.463C288.676 230.842 288.351 231.202 288.003 231.54H287.945C286.978 231.721 286.001 231.842 285.02 231.901C283.986 231.901 282.972 231.511 281.943 231.584C281.334 231.653 280.734 231.788 280.154 231.989C277.478 232.773 274.699 233.145 271.911 233.09L271.574 233.125L271.886 231.136C272.054 229.493 272.634 227.92 273.573 226.563C273.752 226.224 273.982 225.915 274.256 225.646C274.568 225.398 274.928 225.217 275.313 225.115C276.311 224.773 277.4 224.813 278.37 225.227C279.135 225.602 279.833 226.309 280.691 226.202C280.673 225.929 280.593 225.664 280.456 225.427C280.319 225.19 280.129 224.988 279.901 224.837C279.44 224.544 278.937 224.323 278.409 224.184C278.126 224.091 278.087 223.613 278.112 223.321C278.156 222.775 278.931 222.658 279.238 222.209C279.545 221.761 279.238 221.039 278.833 220.596C278.144 219.805 277.184 219.299 276.142 219.177C275.624 219.128 275.102 219.223 274.635 219.451C274.167 219.678 273.771 220.031 273.49 220.469C273.283 220.897 273.105 221.338 272.959 221.79C272.567 222.626 272.045 223.394 271.413 224.067C269.951 225.797 268.727 227.669 267.401 229.502C266.958 230.084 266.554 230.695 266.192 231.331C265.613 232.418 265.28 233.62 265.217 234.85C265.193 235.143 265.216 235.438 265.285 235.723C265.253 235.792 265.235 235.866 265.232 235.942C265.247 236.076 265.288 236.205 265.354 236.322C265.419 236.439 265.507 236.542 265.612 236.625C266.358 237.376 267.143 238.151 268.147 238.472C268.772 238.62 269.405 238.729 270.043 238.799C271.584 239.077 273.003 239.969 274.568 239.964C275.645 239.964 276.708 239.535 277.77 239.686C279.233 239.886 280.286 241.076 281.183 242.231C281.945 243.133 282.517 244.179 282.865 245.307C283.211 246.667 282.996 248.198 283.723 249.397C283.906 249.642 284.048 249.916 284.142 250.207C284.157 250.667 284.055 251.123 283.845 251.533C283.23 253.419 284.576 255.433 284.435 257.383C284.366 258.333 283.947 259.23 283.903 260.181C283.83 261.405 284.327 262.774 283.645 263.793C284.059 263.579 284.478 263.389 284.907 263.218C282.86 269.219 281.007 275.406 281.149 281.714C281.256 285.804 282.124 290.309 279.774 293.667C279.44 294.068 279.175 294.521 278.989 295.008C278.804 295.666 278.989 296.363 279.111 297.036C279.545 299.961 277.965 302.842 277.858 305.811C277.846 306.726 277.905 307.64 278.034 308.546L278.609 313.489C278.029 313.615 277.49 313.883 277.039 314.269C276.435 314.757 275.903 315.556 276.186 316.288C276.415 316.877 277.088 317.16 277.707 317.306C278.342 317.378 278.949 317.607 279.472 317.974C279.639 318.159 279.816 318.335 280.003 318.501C280.364 318.696 280.776 318.773 281.183 318.72C281.929 318.691 282.645 318.628 283.406 318.525C283.564 318.519 283.717 318.47 283.85 318.384C283.939 318.285 284.007 318.17 284.049 318.044C284.092 317.918 284.109 317.785 284.098 317.653C284.153 316.91 284.122 316.165 284.006 315.43C283.976 315.288 283.937 315.152 283.898 315.01C284.154 314.384 284.336 313.729 284.439 313.06C284.591 312.085 284.615 311.066 284.678 310.067C284.825 307.522 285.166 304.997 285.556 302.472L286.043 299.225C286.194 298.157 286.35 297.09 286.531 296.022C287.435 290.239 288.841 284.547 290.733 279.008C291.147 277.824 291.854 276.434 293.107 276.4L293.853 277.863C294.828 279.696 295.423 281.729 296.164 283.654C297.139 286.184 296.807 289.139 298.114 291.518C298.328 291.912 298.601 292.288 298.762 292.702C298.993 293.34 299.128 294.009 299.162 294.686L300.025 303.461C300.415 307.405 300.834 311.456 302.604 315.001C302.715 315.229 302.845 315.448 302.994 315.654C302.939 316.244 302.931 316.837 302.969 317.428C302.942 317.533 302.94 317.642 302.962 317.748C302.984 317.854 303.031 317.953 303.098 318.037C303.165 318.122 303.251 318.19 303.349 318.235C303.447 318.281 303.554 318.304 303.662 318.301C304.398 318.398 305.124 318.462 305.88 318.491C306.286 318.544 306.699 318.467 307.06 318.272C307.25 318.109 307.429 317.933 307.596 317.745C308.117 317.378 308.722 317.148 309.356 317.077C309.975 316.936 310.648 316.653 310.877 316.058C311.164 315.327 310.628 314.533 310.024 314.04C309.534 313.612 308.931 313.333 308.288 313.236C308.023 313.251 307.757 313.23 307.498 313.172C307.559 312.851 307.578 312.524 307.557 312.197C307.494 311.814 307.478 311.424 307.508 311.037C307.608 310.646 307.741 310.264 307.908 309.896C308.468 308.171 307.274 306.416 306.855 304.651C306.294 302.301 307.128 299.839 306.977 297.426C306.743 293.638 304.1 290.084 304.802 286.355C305.363 283.371 304.885 280.305 304.354 277.317L302.404 266.197C302.267 265.294 302.03 264.41 301.697 263.559C302.059 263.497 302.415 263.402 302.76 263.277C303.247 262.087 303.164 260.776 303.018 259.498C302.872 258.221 302.531 256.973 302.36 255.706C302.212 254.686 302.128 253.659 302.106 252.63C302.053 251.614 302.125 250.595 302.321 249.597C302.545 248.721 302.85 247.867 303.233 247.048C304.176 244.681 305.318 242.398 306.645 240.223C308.649 240.067 310.589 239.896 312.588 239.735C313.067 239.713 313.543 239.65 314.011 239.545C314.608 239.339 315.215 239.165 315.83 239.023C316.059 239.011 316.285 238.967 316.502 238.892C316.941 238.692 317.209 238.131 317.692 238.112C317.873 238.136 318.057 238.136 318.238 238.112C318.452 238.043 318.56 237.809 318.725 237.624C319.028 237.288 319.52 237.22 319.915 237C320.254 236.78 320.504 236.449 320.624 236.063C320.743 235.677 320.723 235.262 320.568 234.889V234.889Z" fill="url(#paint2_linear)"/>
<path d="M295.208 229.556C298.169 229.556 300.57 227.155 300.57 224.194C300.57 221.232 298.169 218.831 295.208 218.831C292.246 218.831 289.845 221.232 289.845 224.194C289.845 227.155 292.246 229.556 295.208 229.556Z" fill="#A1616A"/>
<path d="M289.017 230.868C288.469 231.542 287.857 232.161 287.189 232.716C290.339 234.594 294.084 235.21 297.67 234.441C297.539 234.076 297.061 234.022 296.725 233.837C296.288 233.527 295.99 233.058 295.896 232.53C295.534 231.246 295.428 229.902 295.584 228.577C295.649 228.255 295.649 227.923 295.584 227.602C295.397 227.119 295.037 226.723 294.575 226.49C293.815 226.017 292.995 225.648 292.137 225.393C291.25 225.13 290.743 225.008 290.709 226.042C290.673 227.789 290.08 229.48 289.017 230.868V230.868Z" fill="#A1616A"/>
<path d="M313.899 234.241L313.353 230.78C313.265 230.084 313.12 229.396 312.919 228.723C312.592 227.849 312.174 227.013 311.671 226.227C311.492 225.889 311.262 225.582 310.989 225.315C310.678 225.067 310.32 224.886 309.936 224.784C308.939 224.443 307.852 224.485 306.884 224.901C306.119 225.271 305.421 225.973 304.568 225.851C304.584 225.579 304.664 225.314 304.801 225.077C304.939 224.841 305.129 224.64 305.358 224.491C305.809 224.199 306.302 223.978 306.821 223.838C307.098 223.75 307.142 223.273 307.118 222.98C307.074 222.439 306.299 222.322 305.992 221.878C305.685 221.435 305.992 220.713 306.392 220.27C307.08 219.482 308.038 218.979 309.078 218.861C309.595 218.809 310.117 218.901 310.585 219.128C311.053 219.354 311.449 219.705 311.73 220.143C311.937 220.569 312.114 221.009 312.261 221.459C312.653 222.291 313.173 223.056 313.802 223.726C315.264 225.447 316.488 227.309 317.809 229.132C318.251 229.713 318.655 230.322 319.018 230.956C319.599 232.035 319.932 233.231 319.993 234.456C320.036 234.832 319.981 235.214 319.832 235.562C319.681 235.816 319.467 236.027 319.211 236.174C318.955 236.321 318.665 236.399 318.37 236.401C317.77 236.386 317.178 236.267 316.619 236.05L314.494 235.333C314.235 235.276 313.998 235.146 313.811 234.958C313.734 234.849 313.7 234.715 313.717 234.583C313.733 234.45 313.798 234.328 313.899 234.241V234.241Z" fill="#A1616A"/>
<path d="M271.414 235.007L271.955 231.545C272.047 230.849 272.194 230.161 272.393 229.488C272.719 228.614 273.137 227.777 273.641 226.992C273.816 226.655 274.045 226.348 274.319 226.085C274.628 225.834 274.987 225.653 275.372 225.554C276.37 225.212 277.459 225.252 278.429 225.666C279.194 226.037 279.891 226.739 280.744 226.617C280.728 226.344 280.647 226.079 280.51 225.843C280.373 225.607 280.183 225.406 279.955 225.257C279.504 224.965 279.01 224.744 278.492 224.603C278.214 224.516 278.17 224.038 278.195 223.745C278.239 223.204 279.009 223.087 279.321 222.644C279.633 222.2 279.321 221.479 278.916 221.04C278.229 220.25 277.271 219.745 276.23 219.626C275.713 219.575 275.192 219.667 274.724 219.894C274.256 220.12 273.859 220.471 273.578 220.908C273.373 221.334 273.197 221.774 273.052 222.224C272.659 223.055 272.139 223.82 271.511 224.491C270.049 226.212 268.825 228.074 267.499 229.898C267.058 230.478 266.656 231.087 266.295 231.721C265.716 232.802 265.383 233.997 265.32 235.221C265.278 235.6 265.335 235.983 265.486 236.333C265.64 236.589 265.858 236.8 266.119 236.947C266.379 237.093 266.674 237.168 266.972 237.166C267.57 237.154 268.161 237.035 268.718 236.815L270.848 236.118C271.106 236.062 271.341 235.931 271.526 235.743C271.606 235.63 271.639 235.489 271.618 235.352C271.597 235.215 271.524 235.091 271.414 235.007Z" fill="#A1616A"/>
<path d="M310.024 314.021C310.628 314.509 311.16 315.303 310.877 316.03C310.643 316.62 309.975 316.897 309.356 317.044C308.724 317.115 308.119 317.343 307.596 317.707C307.431 317.886 307.253 318.054 307.065 318.209C306.705 318.406 306.292 318.483 305.885 318.428C305.144 318.399 304.423 318.336 303.667 318.238C303.509 318.232 303.356 318.183 303.223 318.097C303.134 318 303.066 317.885 303.024 317.759C302.982 317.634 302.967 317.502 302.98 317.37C302.921 316.632 302.95 315.889 303.067 315.157C303.19 314.422 303.568 313.754 304.135 313.27C304.7 312.832 306.416 311.53 307.06 312.364C307.231 312.588 307.162 312.895 307.401 313.08C307.64 313.266 308.015 313.163 308.288 313.197C308.934 313.3 309.536 313.586 310.024 314.021Z" fill="#3F3D56"/>
<path d="M277.083 314.274C276.478 314.762 275.947 315.556 276.229 316.283C276.459 316.873 277.126 317.155 277.746 317.297C278.378 317.368 278.983 317.596 279.505 317.96C279.672 318.147 279.851 318.323 280.042 318.486C280.401 318.68 280.812 318.757 281.217 318.706C281.958 318.676 282.679 318.613 283.435 318.511C283.593 318.505 283.746 318.456 283.878 318.369C283.969 318.272 284.037 318.158 284.08 318.033C284.123 317.907 284.139 317.775 284.127 317.643C284.182 316.906 284.151 316.164 284.034 315.434C283.914 314.697 283.536 314.027 282.967 313.543C282.406 313.104 280.69 311.803 280.042 312.636C279.871 312.86 279.939 313.172 279.696 313.353C279.452 313.533 279.086 313.436 278.808 313.47C278.169 313.57 277.571 313.849 277.083 314.274Z" fill="#3F3D56"/>
<path d="M285.37 262.258C283.172 268.595 281.037 275.152 281.202 281.875C281.31 285.946 282.177 290.431 279.832 293.77C279.498 294.168 279.233 294.62 279.048 295.106C278.862 295.759 279.048 296.451 279.165 297.124C279.603 300.049 278.029 302.906 277.917 305.86C277.904 306.77 277.963 307.68 278.092 308.58L278.701 313.787C278.906 315.571 281.207 316.302 282.982 316.551C283.816 315.555 284.34 314.337 284.488 313.046C284.639 312.071 284.664 311.062 284.722 310.072C284.873 307.537 285.239 305.022 285.6 302.511L286.087 299.279C286.243 298.216 286.394 297.153 286.575 296.091C287.485 290.352 288.893 284.703 290.782 279.208C291.196 278.024 291.903 276.644 293.151 276.61L293.897 278.043C294.872 279.862 295.462 281.89 296.203 283.805C297.178 286.326 296.841 289.261 298.153 291.635C298.367 292.025 298.64 292.4 298.796 292.81C299.025 293.436 299.16 294.094 299.196 294.76L300.059 303.476C300.449 307.401 300.863 311.432 302.633 314.957C302.808 315.378 303.088 315.747 303.447 316.029C304.169 316.517 305.178 316.268 305.885 315.761C306.444 315.35 306.891 314.805 307.185 314.177C307.48 313.548 307.613 312.856 307.571 312.163C307.514 311.781 307.497 311.394 307.523 311.008C307.626 310.62 307.76 310.24 307.922 309.872C308.488 308.156 307.293 306.411 306.869 304.656C306.309 302.316 307.142 299.869 306.996 297.465C306.762 293.692 304.125 290.153 304.822 286.443C305.382 283.474 304.905 280.422 304.378 277.448L302.404 266.382C302.092 264.637 301.624 262.667 300.069 261.814C299.177 261.415 298.2 261.247 297.227 261.327C293.195 261.327 289.344 261.887 285.37 262.258Z" fill="#3F3D56"/>
<path d="M320.568 235.285C319.149 235.428 317.719 235.132 316.473 234.437C316 234.122 315.495 233.857 314.967 233.647C313.992 233.33 312.919 233.608 311.896 233.759C310.215 234.002 308.502 233.886 306.87 233.418C305.163 232.93 303.457 232.048 301.702 232.443C300.878 232.623 300.132 233.077 299.299 233.208C298.647 233.274 297.99 233.239 297.349 233.106L291.791 232.238C290.537 231.987 289.256 231.895 287.979 231.965C287.012 232.145 286.035 232.267 285.054 232.331C284.025 232.331 283.011 231.941 281.983 232.009C281.375 232.078 280.777 232.214 280.198 232.414C277.528 233.194 274.755 233.563 271.974 233.51C269.757 233.656 267.619 234.397 265.788 235.655C265.661 235.725 265.552 235.822 265.468 235.939C265.384 236.057 265.326 236.191 265.3 236.333C265.316 236.465 265.359 236.593 265.425 236.708C265.491 236.824 265.58 236.925 265.685 237.006C266.426 237.757 267.211 238.527 268.216 238.849C268.839 238.995 269.47 239.103 270.107 239.17C271.643 239.453 273.061 240.335 274.621 240.335C275.699 240.335 276.757 239.906 277.819 240.058C279.282 240.257 280.33 241.437 281.232 242.588C281.99 243.486 282.562 244.527 282.914 245.649C283.255 247.004 283.04 248.525 283.767 249.72C283.949 249.964 284.091 250.235 284.186 250.524C284.202 250.983 284.099 251.438 283.889 251.845C283.274 253.722 284.62 255.706 284.479 257.695C284.41 258.636 283.991 259.533 283.947 260.474C283.879 261.698 284.371 263.058 283.689 264.072C286.322 262.745 289.249 262.106 292.196 262.214C292.686 262.226 293.174 262.272 293.658 262.351C294.598 262.543 295.523 262.8 296.427 263.121C298.465 263.77 300.708 264.233 302.716 263.492C303.204 262.307 303.121 261.001 302.97 259.733C302.818 258.466 302.506 257.218 302.316 255.955C302.169 254.941 302.084 253.918 302.063 252.893C302.01 251.883 302.082 250.869 302.277 249.876C302.501 249.004 302.806 248.155 303.189 247.341C304.13 244.973 305.271 242.689 306.601 240.516C308.6 240.355 310.536 240.184 312.534 240.028C313.011 240.002 313.486 239.938 313.953 239.838C314.548 239.635 315.153 239.462 315.766 239.321C315.996 239.308 316.223 239.262 316.439 239.185C316.878 238.985 317.151 238.429 317.629 238.415C317.81 238.436 317.993 238.436 318.175 238.415C318.389 238.351 318.492 238.112 318.662 237.927C318.964 237.591 319.457 237.523 319.852 237.308C320.183 237.102 320.435 236.79 320.565 236.422C320.696 236.055 320.697 235.653 320.568 235.285V235.285Z" fill="#0D6EFD"/>
<path d="M296.14 226.129C296.295 226.251 296.485 226.323 296.682 226.336C296.88 226.348 297.077 226.299 297.246 226.197C297.459 225.997 297.603 225.734 297.656 225.446C297.831 224.837 297.973 224.219 298.08 223.594C298.108 223.322 298.191 223.058 298.324 222.819C298.68 222.273 299.45 222.243 300.049 221.995C300.791 221.594 301.404 220.993 301.819 220.259L301.483 220.191L301.8 219.704C301.724 219.658 301.661 219.595 301.614 219.521C301.567 219.447 301.538 219.362 301.53 219.275C301.521 219.187 301.533 219.099 301.565 219.017C301.596 218.934 301.647 218.861 301.712 218.802C301.427 218.65 301.107 218.578 300.786 218.592C300.888 218.407 300.722 218.173 300.522 218.105C300.316 218.061 300.104 218.05 299.893 218.07C299.582 218.045 299.276 217.973 298.987 217.856C296.91 217.144 294.658 216.515 292.542 217.115C291.607 217.404 290.733 217.861 289.963 218.465C289.218 218.884 288.661 219.571 288.407 220.387C288.152 221.203 288.219 222.085 288.593 222.853C288.913 223.645 289.142 224.471 289.276 225.315C289.307 226.107 289.218 226.899 289.012 227.664C289.59 227.85 290.187 227.966 290.792 228.011C291.4 228.057 292.006 227.884 292.498 227.523C292.986 227.104 293.259 226.455 293.658 225.929C293.812 225.697 294.021 225.507 294.268 225.378C294.514 225.248 294.789 225.183 295.067 225.188C295.608 225.271 295.706 225.822 296.14 226.129Z" fill="#3F3D56"/>
<path d="M282.041 318.209H276.332C276.163 318.243 276.011 318.334 275.902 318.468C275.793 318.601 275.733 318.768 275.733 318.94C275.733 319.113 275.793 319.28 275.902 319.413C276.011 319.546 276.163 319.638 276.332 319.671H277.473V329.358H257.939C257.893 329.282 257.83 329.218 257.754 329.173C257.679 329.127 257.593 329.1 257.505 329.095H251.801C251.632 329.129 251.48 329.22 251.371 329.354C251.262 329.487 251.202 329.654 251.202 329.826C251.202 329.998 251.262 330.165 251.371 330.299C251.48 330.432 251.632 330.523 251.801 330.557H252.942V340.507H234.08C234.063 340.372 234.001 340.246 233.904 340.151C233.807 340.055 233.68 339.995 233.544 339.981H227.845C227.672 340.009 227.514 340.098 227.4 340.232C227.286 340.366 227.224 340.536 227.224 340.712C227.224 340.888 227.286 341.058 227.4 341.192C227.514 341.326 227.672 341.415 227.845 341.443H228.416V351.681H209.242C209.171 351.64 209.09 351.619 209.008 351.618H203.304C203.135 351.651 202.983 351.743 202.874 351.876C202.765 352.009 202.705 352.176 202.705 352.349C202.705 352.521 202.765 352.688 202.874 352.821C202.983 352.955 203.135 353.046 203.304 353.08H203.875V362.83H184.945C184.904 362.734 184.836 362.652 184.75 362.593C184.663 362.534 184.562 362.501 184.457 362.499H178.754C178.585 362.532 178.433 362.624 178.324 362.757C178.214 362.89 178.155 363.057 178.155 363.23C178.155 363.402 178.214 363.569 178.324 363.702C178.433 363.836 178.585 363.927 178.754 363.961H179.324V374.759H308.283V318.209H282.041Z" fill="#3F3D56"/>
<path opacity="0.1" d="M98.2962 131.154C97.7329 130.411 97.0942 129.728 96.3901 129.117C96.1989 128.95 96.0489 128.742 95.9519 128.508C95.8548 128.274 95.8134 128.02 95.8309 127.768C95.8484 127.515 95.9243 127.27 96.0526 127.051C96.1809 126.833 96.3582 126.647 96.5705 126.509C96.8045 126.357 97.0336 126.197 97.2627 126.021C99.9245 123.998 101.27 121.283 100.261 119.952C99.2517 118.621 96.2731 119.186 93.6113 121.209C93.3037 121.438 93.0091 121.684 92.729 121.946C92.5417 122.114 92.3181 122.237 92.0756 122.304C91.833 122.372 91.5781 122.383 91.3308 122.335C91.0835 122.288 90.8504 122.184 90.6498 122.032C90.4492 121.88 90.2865 121.684 90.1745 121.458C89.8005 120.725 89.3616 120.026 88.8631 119.372C86.4938 116.252 83.3153 114.677 81.7602 115.857C80.205 117.036 80.8583 120.527 83.2227 123.657C83.685 124.268 84.1987 124.839 84.7583 125.363C84.9432 125.543 85.0833 125.764 85.1672 126.008C85.2511 126.252 85.2766 126.512 85.2415 126.768C85.2064 127.023 85.1117 127.267 84.9651 127.48C84.8186 127.692 84.6241 127.867 84.3976 127.991C81.4725 129.663 79.8199 132.183 80.6487 133.631C81.4774 135.079 84.5097 134.898 87.4103 133.231C87.8598 132.97 88.2928 132.682 88.7071 132.368C88.9022 132.22 89.1279 132.117 89.3679 132.067C89.6078 132.017 89.8559 132.021 90.0942 132.079C90.3324 132.136 90.5546 132.247 90.7448 132.401C90.9349 132.556 91.0882 132.751 91.1933 132.973C91.5888 133.837 92.0794 134.655 92.6558 135.41C95.0202 138.53 98.2036 140.105 99.7587 138.925C101.314 137.745 100.661 134.279 98.2962 131.154Z" fill="#0D6EFD"/>
<path opacity="0.1" d="M443.604 215.4C444.153 214.647 444.622 213.838 445.003 212.987C445.105 212.755 445.26 212.551 445.455 212.39C445.65 212.229 445.88 212.115 446.126 212.059C446.373 212.002 446.629 212.003 446.875 212.063C447.121 212.122 447.349 212.238 447.543 212.402C447.757 212.577 447.981 212.748 448.21 212.918C450.921 214.868 453.914 215.356 454.889 214.015C455.864 212.675 454.46 209.979 451.75 208.019C451.425 207.788 451.1 207.579 450.775 207.39C450.559 207.259 450.377 207.08 450.242 206.867C450.107 206.654 450.024 206.413 449.998 206.162C449.972 205.912 450.004 205.658 450.092 205.422C450.181 205.186 450.322 204.974 450.507 204.801C451.099 204.232 451.638 203.609 452.115 202.939C454.411 199.766 454.987 196.265 453.407 195.139C451.828 194.013 448.678 195.627 446.382 198.82C445.934 199.436 445.538 200.088 445.198 200.77C445.08 200.999 444.909 201.198 444.701 201.349C444.492 201.501 444.25 201.602 443.996 201.643C443.741 201.684 443.48 201.665 443.234 201.587C442.988 201.509 442.764 201.374 442.58 201.194V201.194C440.142 198.908 437.217 198.04 436.091 199.244C434.965 200.448 436.008 203.305 438.451 205.581C438.83 205.933 439.232 206.258 439.655 206.557C439.853 206.7 440.017 206.886 440.135 207.102C440.252 207.317 440.32 207.555 440.334 207.8C440.347 208.045 440.306 208.29 440.213 208.516C440.12 208.743 439.978 208.946 439.796 209.111C439.081 209.752 438.438 210.47 437.88 211.251C435.584 214.425 435.009 217.925 436.593 219.051C438.178 220.177 441.307 218.578 443.604 215.4Z" fill="#0D6EFD"/>
<path d="M446.1 379.966C455.2 379.966 462.578 378.548 462.578 376.798C462.578 375.048 455.2 373.629 446.1 373.629C437 373.629 429.623 375.048 429.623 376.798C429.623 378.548 437 379.966 446.1 379.966Z" fill="#0D6EFD"/>
<path d="M445.827 377.963C446.888 377.963 447.748 376.839 447.748 375.452C447.748 374.065 446.888 372.941 445.827 372.941C444.766 372.941 443.906 374.065 443.906 375.452C443.906 376.839 444.766 377.963 445.827 377.963Z" fill="#3F3D56"/>
<path d="M445.827 374.89C446.888 374.89 447.748 373.766 447.748 372.38C447.748 370.993 446.888 369.869 445.827 369.869C444.766 369.869 443.906 370.993 443.906 372.38C443.906 373.766 444.766 374.89 445.827 374.89Z" fill="#3F3D56"/>
<path d="M445.827 371.825C446.888 371.825 447.748 370.701 447.748 369.314C447.748 367.928 446.888 366.804 445.827 366.804C444.766 366.804 443.906 367.928 443.906 369.314C443.906 370.701 444.766 371.825 445.827 371.825Z" fill="#3F3D56"/>
<path d="M445.827 368.753C446.888 368.753 447.748 367.629 447.748 366.242C447.748 364.855 446.888 363.731 445.827 363.731C444.766 363.731 443.906 364.855 443.906 366.242C443.906 367.629 444.766 368.753 445.827 368.753Z" fill="#3F3D56"/>
<path d="M445.827 365.68C446.888 365.68 447.748 364.556 447.748 363.17C447.748 361.783 446.888 360.659 445.827 360.659C444.766 360.659 443.906 361.783 443.906 363.17C443.906 364.556 444.766 365.68 445.827 365.68Z" fill="#3F3D56"/>
<path d="M445.827 362.616C446.888 362.616 447.748 361.492 447.748 360.105C447.748 358.719 446.888 357.595 445.827 357.595C444.766 357.595 443.906 358.719 443.906 360.105C443.906 361.492 444.766 362.616 445.827 362.616Z" fill="#3F3D56"/>
<path d="M445.827 359.543C446.888 359.543 447.748 358.419 447.748 357.032C447.748 355.646 446.888 354.521 445.827 354.521C444.766 354.521 443.906 355.646 443.906 357.032C443.906 358.419 444.766 359.543 445.827 359.543Z" fill="#3F3D56"/>
<path d="M453.008 336.026C453.268 335.691 453.506 335.339 453.72 334.973L448.684 334.144L454.135 334.188C454.659 333.05 454.945 331.817 454.975 330.564C455.005 329.312 454.779 328.066 454.31 326.905L446.997 330.697L453.745 325.74C453.11 324.653 452.259 323.708 451.244 322.963C450.229 322.219 449.072 321.691 447.845 321.412C446.617 321.133 445.346 321.109 444.109 321.342C442.872 321.575 441.696 322.059 440.654 322.765C439.612 323.472 438.726 324.384 438.051 325.447C437.377 326.509 436.927 327.699 436.731 328.942C436.535 330.185 436.597 331.456 436.912 332.674C437.227 333.893 437.789 335.034 438.564 336.026C438.156 336.546 437.805 337.109 437.516 337.703L444.063 341.115L437.082 338.775C436.591 340.222 436.467 341.768 436.722 343.275C436.978 344.781 437.604 346.2 438.544 347.404C437.479 348.76 436.816 350.388 436.632 352.102C436.448 353.817 436.75 355.548 437.504 357.099C438.257 358.65 439.432 359.958 440.894 360.872C442.355 361.787 444.045 362.272 445.769 362.272C447.493 362.272 449.183 361.787 450.644 360.872C452.106 359.958 453.281 358.65 454.034 357.099C454.788 355.548 455.09 353.817 454.906 352.102C454.722 350.388 454.059 348.76 452.994 347.404C454.266 345.784 454.958 343.783 454.958 341.722C454.958 339.662 454.266 337.661 452.994 336.04L453.008 336.026Z" fill="#0D6EFD"/>
<path opacity="0.1" d="M436.594 341.706C436.588 343.766 437.275 345.768 438.544 347.39C437.479 348.746 436.816 350.374 436.632 352.088C436.448 353.803 436.75 355.534 437.504 357.085C438.257 358.636 439.432 359.944 440.894 360.859C442.355 361.773 444.045 362.258 445.769 362.258C447.493 362.258 449.183 361.773 450.644 360.859C452.106 359.944 453.281 358.636 454.034 357.085C454.788 355.534 455.09 353.803 454.906 352.088C454.722 350.374 454.059 348.746 452.994 347.39C454.237 345.825 436.594 340.677 436.594 341.706Z" fill="black"/>
<path d="M145.799 378.986C149.918 378.986 153.257 378.344 153.257 377.552C153.257 376.761 149.918 376.119 145.799 376.119C141.679 376.119 138.34 376.761 138.34 377.552C138.34 378.344 141.679 378.986 145.799 378.986Z" fill="#0D6EFD"/>
<path d="M145.677 378.077C146.156 378.077 146.545 377.569 146.545 376.942C146.545 376.314 146.156 375.806 145.677 375.806C145.198 375.806 144.809 376.314 144.809 376.942C144.809 377.569 145.198 378.077 145.677 378.077Z" fill="#3F3D56"/>
<path d="M145.677 376.69C146.156 376.69 146.545 376.181 146.545 375.554C146.545 374.927 146.156 374.418 145.677 374.418C145.198 374.418 144.809 374.927 144.809 375.554C144.809 376.181 145.198 376.69 145.677 376.69Z" fill="#3F3D56"/>
<path d="M145.677 375.301C146.156 375.301 146.545 374.792 146.545 374.165C146.545 373.538 146.156 373.029 145.677 373.029C145.198 373.029 144.809 373.538 144.809 374.165C144.809 374.792 145.198 375.301 145.677 375.301Z" fill="#3F3D56"/>
<path d="M145.677 373.911C146.156 373.911 146.545 373.403 146.545 372.776C146.545 372.148 146.156 371.64 145.677 371.64C145.198 371.64 144.809 372.148 144.809 372.776C144.809 373.403 145.198 373.911 145.677 373.911Z" fill="#3F3D56"/>
<path d="M145.677 372.522C146.156 372.522 146.545 372.013 146.545 371.386C146.545 370.759 146.156 370.25 145.677 370.25C145.198 370.25 144.809 370.759 144.809 371.386C144.809 372.013 145.198 372.522 145.677 372.522Z" fill="#3F3D56"/>
<path d="M145.677 371.132C146.156 371.132 146.545 370.624 146.545 369.996C146.545 369.369 146.156 368.86 145.677 368.86C145.198 368.86 144.809 369.369 144.809 369.996C144.809 370.624 145.198 371.132 145.677 371.132Z" fill="#3F3D56"/>
<path d="M145.677 369.742C146.156 369.742 146.545 369.234 146.545 368.607C146.545 367.979 146.156 367.471 145.677 367.471C145.198 367.471 144.809 367.979 144.809 368.607C144.809 369.234 145.198 369.742 145.677 369.742Z" fill="#3F3D56"/>
<path d="M148.924 359.096C149.044 358.942 149.154 358.779 149.25 358.609L146.969 358.233H149.436C149.686 357.687 149.816 357.094 149.816 356.493C149.817 355.96 149.714 355.432 149.514 354.938L146.203 356.654L149.255 354.411C148.968 353.919 148.583 353.492 148.123 353.155C147.664 352.818 147.141 352.579 146.585 352.453C146.03 352.327 145.454 352.316 144.894 352.421C144.335 352.527 143.802 352.746 143.331 353.066C142.859 353.385 142.459 353.798 142.153 354.279C141.848 354.76 141.645 355.299 141.556 355.861C141.468 356.424 141.496 356.999 141.638 357.55C141.781 358.102 142.036 358.618 142.386 359.067C142.197 359.301 142.034 359.554 141.899 359.823L144.858 361.363L141.699 360.3C141.479 360.955 141.425 361.655 141.542 362.335C141.66 363.016 141.945 363.657 142.372 364.2C141.887 364.814 141.586 365.552 141.501 366.329C141.417 367.106 141.553 367.892 141.894 368.595C142.235 369.299 142.767 369.892 143.43 370.307C144.093 370.722 144.859 370.942 145.64 370.942C146.422 370.942 147.188 370.722 147.851 370.307C148.513 369.892 149.045 369.299 149.386 368.595C149.728 367.892 149.864 367.106 149.779 366.329C149.695 365.552 149.393 364.814 148.909 364.2C149.487 363.468 149.801 362.562 149.801 361.629C149.801 360.696 149.487 359.79 148.909 359.057L148.924 359.096Z" fill="#0D6EFD"/>
<path opacity="0.1" d="M141.494 361.665C141.494 362.599 141.808 363.505 142.386 364.239C141.902 364.852 141.6 365.59 141.516 366.367C141.432 367.145 141.568 367.93 141.909 368.633C142.25 369.337 142.782 369.93 143.445 370.345C144.107 370.76 144.873 370.98 145.655 370.98C146.437 370.98 147.203 370.76 147.865 370.345C148.528 369.93 149.06 369.337 149.401 368.633C149.742 367.93 149.878 367.145 149.794 366.367C149.709 365.59 149.408 364.852 148.924 364.239C149.484 363.546 141.494 361.197 141.494 361.665Z" fill="black"/>
<defs>
<linearGradient id="paint0_linear" x1="292.766" y1="373.149" x2="292.766" y2="71.3857" gradientUnits="userSpaceOnUse">
<stop stop-color="#808080" stop-opacity="0.25"/>
<stop offset="0.54" stop-color="#808080" stop-opacity="0.12"/>
<stop offset="1" stop-color="#808080" stop-opacity="0.1"/>
</linearGradient>
<linearGradient id="paint1_linear" x1="-2640.95" y1="1207.4" x2="-2623.4" y2="1207.4" gradientUnits="userSpaceOnUse">
<stop stop-color="#808080" stop-opacity="0.25"/>
<stop offset="0.54" stop-color="#808080" stop-opacity="0.12"/>
<stop offset="1" stop-color="#808080" stop-opacity="0.1"/>
</linearGradient>
<linearGradient id="paint2_linear" x1="32923.8" y1="71133.5" x2="32923.8" y2="49657.7" gradientUnits="userSpaceOnUse">
<stop stop-color="#808080" stop-opacity="0.25"/>
<stop offset="0.54" stop-color="#808080" stop-opacity="0.12"/>
<stop offset="1" stop-color="#808080" stop-opacity="0.1"/>
</linearGradient>
</defs>
</svg>
